%TF.GenerationSoftware,KiCad,Pcbnew,10.0.5*%
%TF.CreationDate,2026-09-04T12:19:43+10:00*%
%TF.ProjectId,OM345A,4f4d3334-3541-42e6-9b69-6361645f7063,rev?*%
%TF.SameCoordinates,Original*%
%TF.FileFunction,Copper,L2,Bot*%
%TF.FilePolarity,Positive*%
%FSLAX46Y46*%
G04 Gerber Fmt 4.6, Leading zero omitted, Abs format (unit mm)*
G04 Created by KiCad (PCBNEW 10.0.5) date 2026-09-04 12:19:43*
%MOMM*%
%LPD*%
G01*
G04 APERTURE LIST*
G04 Aperture macros list*
%AMRoundRect*
0 Rectangle with rounded corners*
0 $1 Rounding radius*
0 $2 $3 $4 $5 $6 $7 $8 $9 X,Y pos of 4 corners*
0 Add a 4 corners polygon primitive as box body*
4,1,4,$2,$3,$4,$5,$6,$7,$8,$9,$2,$3,0*
0 Add four circle primitives for the rounded corners*
1,1,$1+$1,$2,$3*
1,1,$1+$1,$4,$5*
1,1,$1+$1,$6,$7*
1,1,$1+$1,$8,$9*
0 Add four rect primitives between the rounded corners*
20,1,$1+$1,$2,$3,$4,$5,0*
20,1,$1+$1,$4,$5,$6,$7,0*
20,1,$1+$1,$6,$7,$8,$9,0*
20,1,$1+$1,$8,$9,$2,$3,0*%
G04 Aperture macros list end*
%TA.AperFunction,ComponentPad*%
%ADD10R,1.700000X1.700000*%
%TD*%
%TA.AperFunction,ComponentPad*%
%ADD11C,1.700000*%
%TD*%
%TA.AperFunction,SMDPad,CuDef*%
%ADD12RoundRect,0.237500X-0.237500X0.250000X-0.237500X-0.250000X0.237500X-0.250000X0.237500X0.250000X0*%
%TD*%
%TA.AperFunction,ViaPad*%
%ADD13C,0.600000*%
%TD*%
%TA.AperFunction,ViaPad*%
%ADD14C,0.800000*%
%TD*%
%TA.AperFunction,Conductor*%
%ADD15C,0.200000*%
%TD*%
%TA.AperFunction,Conductor*%
%ADD16C,1.000000*%
%TD*%
G04 APERTURE END LIST*
D10*
%TO.P,J1,1,Pin_1_1*%
%TO.N,/RF_In2*%
X102500000Y-99000000D03*
D11*
%TO.P,J1,2,Pin_2_2*%
%TO.N,GND*%
X105040000Y-99000000D03*
%TO.P,J1,3,Pin_3_3*%
X107580000Y-99000000D03*
%TO.P,J1,4,Pin_4_4*%
%TO.N,Net-(J1-Pin_4)*%
X110120000Y-99000000D03*
%TO.P,J1,5,Pin_5_5*%
%TO.N,/RF_Out1*%
X112660000Y-99000000D03*
%TD*%
D12*
%TO.P,R5,1*%
%TO.N,GND*%
X103600000Y-90700000D03*
%TO.P,R5,2*%
%TO.N,/RF_In2*%
X103600000Y-92525000D03*
%TD*%
%TO.P,R4,1*%
%TO.N,GND*%
X101500000Y-90687500D03*
%TO.P,R4,2*%
%TO.N,/RF_In1*%
X101500000Y-92512500D03*
%TD*%
D13*
%TO.N,GND*%
X109000000Y-97150000D03*
%TO.N,Net-(J1-Pin_4)*%
X114000000Y-97000000D03*
X111000000Y-97500000D03*
D14*
%TO.N,/RF_In2*%
X104200000Y-95900000D03*
D13*
%TO.N,GND*%
X104350410Y-96902945D03*
X113700000Y-98100000D03*
X100450000Y-93900000D03*
X104522943Y-91990466D03*
X100450000Y-91700000D03*
X107500000Y-89500000D03*
X103200000Y-94920000D03*
X108700000Y-89500000D03*
X114500000Y-89500000D03*
X111400000Y-95000000D03*
X107500000Y-96000000D03*
X107500000Y-90350000D03*
X100450000Y-95100000D03*
X111600000Y-96800000D03*
X110000000Y-94700000D03*
X113400000Y-94800000D03*
X101100000Y-99400000D03*
X105500000Y-94800000D03*
X105500000Y-89500000D03*
X112100000Y-89500000D03*
X111600000Y-98100000D03*
X107500000Y-97150000D03*
X105500000Y-90350000D03*
X107500000Y-91200000D03*
X114500000Y-99500000D03*
X108800000Y-94000000D03*
X113000000Y-93000000D03*
X102000000Y-97649998D03*
X101100000Y-98200000D03*
X102309799Y-96707295D03*
X105500000Y-96000000D03*
X102800000Y-89500000D03*
X109800000Y-89500000D03*
X105500000Y-97150000D03*
X107500000Y-94800000D03*
X105500000Y-91200000D03*
X103500000Y-91500000D03*
X102200000Y-91500000D03*
X111700000Y-93000000D03*
X109850000Y-91800000D03*
X100450000Y-92800000D03*
X106500000Y-97150000D03*
X100450000Y-89500000D03*
X100450000Y-96300000D03*
X110700000Y-92700000D03*
D14*
%TO.N,/RF_In1*%
X102500000Y-94200000D03*
%TD*%
%TO.N,Net-(J1-Pin_4)*%
D15*
X111000000Y-97500000D02*
X113500000Y-97500000D01*
X113500000Y-97500000D02*
X114000000Y-97000000D01*
%TO.N,/RF_In2*%
D16*
X104200000Y-95900000D02*
X104200000Y-93973528D01*
X104212500Y-95912500D02*
X104200000Y-95900000D01*
X104200000Y-93973528D02*
G75*
G03*
X103600008Y-92524992I-2048500J28D01*
G01*
%TO.N,GND*%
D15*
X105600000Y-98440000D02*
X105040000Y-99000000D01*
X103569822Y-90687500D02*
G75*
G02*
X103599993Y-90700007I-22J-42700D01*
G01*
%TO.N,/RF_In1*%
D16*
X102500000Y-94200000D02*
X101986136Y-93686136D01*
X101986136Y-93686136D02*
G75*
G02*
X101500008Y-92512500I1173664J1173636D01*
G01*
%TD*%
%TA.AperFunction,Conductor*%
%TO.N,GND*%
G36*
X114775000Y-89170462D02*
G01*
X114829538Y-89225000D01*
X114849500Y-89299500D01*
X114849500Y-99700500D01*
X114829538Y-99775000D01*
X114775000Y-99829538D01*
X114700500Y-99849500D01*
X113634567Y-99849500D01*
X113560067Y-99829538D01*
X113505529Y-99775000D01*
X113485567Y-99700500D01*
X113505529Y-99626000D01*
X113510669Y-99617733D01*
X113590941Y-99497598D01*
X113670130Y-99306420D01*
X113710500Y-99103465D01*
X113710500Y-98896535D01*
X113670130Y-98693580D01*
X113623742Y-98581591D01*
X113590942Y-98502403D01*
X113475977Y-98330345D01*
X113329654Y-98184022D01*
X113164078Y-98073389D01*
X113113224Y-98015401D01*
X113098177Y-97939755D01*
X113122969Y-97866720D01*
X113180957Y-97815866D01*
X113246858Y-97800500D01*
X113539557Y-97800500D01*
X113539562Y-97800500D01*
X113615989Y-97780021D01*
X113684511Y-97740460D01*
X113740460Y-97684511D01*
X113880829Y-97544140D01*
X113947623Y-97505577D01*
X113986188Y-97500500D01*
X114065892Y-97500500D01*
X114193186Y-97466392D01*
X114307314Y-97400500D01*
X114400500Y-97307314D01*
X114466392Y-97193186D01*
X114500500Y-97065892D01*
X114500500Y-96934108D01*
X114466392Y-96806814D01*
X114400500Y-96692686D01*
X114307314Y-96599500D01*
X114307311Y-96599498D01*
X114307310Y-96599497D01*
X114236514Y-96558623D01*
X114193186Y-96533608D01*
X114065892Y-96499500D01*
X113934108Y-96499500D01*
X113806814Y-96533608D01*
X113806812Y-96533608D01*
X113806812Y-96533609D01*
X113692689Y-96599497D01*
X113599497Y-96692689D01*
X113533609Y-96806812D01*
X113499500Y-96934106D01*
X113499500Y-97013811D01*
X113479538Y-97088311D01*
X113455860Y-97119168D01*
X113419172Y-97155857D01*
X113352378Y-97194422D01*
X113313812Y-97199500D01*
X111469032Y-97199500D01*
X111394532Y-97179538D01*
X111363674Y-97155860D01*
X111363671Y-97155857D01*
X111307314Y-97099500D01*
X111307311Y-97099498D01*
X111307310Y-97099497D01*
X111236514Y-97058623D01*
X111193186Y-97033608D01*
X111065892Y-96999500D01*
X110934108Y-96999500D01*
X110806814Y-97033608D01*
X110806812Y-97033608D01*
X110806812Y-97033609D01*
X110692689Y-97099497D01*
X110599497Y-97192689D01*
X110533609Y-97306812D01*
X110533608Y-97306814D01*
X110533474Y-97307314D01*
X110499500Y-97434106D01*
X110499500Y-97565893D01*
X110533608Y-97693186D01*
X110576604Y-97767658D01*
X110596565Y-97842158D01*
X110576602Y-97916658D01*
X110522064Y-97971196D01*
X110447564Y-97991157D01*
X110418497Y-97988294D01*
X110223465Y-97949500D01*
X110016535Y-97949500D01*
X109813582Y-97989869D01*
X109622403Y-98069057D01*
X109450345Y-98184022D01*
X109304022Y-98330345D01*
X109189057Y-98502403D01*
X109109869Y-98693582D01*
X109069500Y-98896534D01*
X109069500Y-99103465D01*
X109109869Y-99306417D01*
X109189057Y-99497595D01*
X109189058Y-99497597D01*
X109189059Y-99497598D01*
X109269322Y-99617721D01*
X109294114Y-99690755D01*
X109279067Y-99766401D01*
X109228213Y-99824389D01*
X109155178Y-99849181D01*
X109145433Y-99849500D01*
X103699500Y-99849500D01*
X103625000Y-99829538D01*
X103570462Y-99775000D01*
X103550500Y-99700500D01*
X103550500Y-98130251D01*
X103538867Y-98071769D01*
X103501202Y-98015401D01*
X103494552Y-98005448D01*
X103428231Y-97961133D01*
X103428230Y-97961132D01*
X103369748Y-97949500D01*
X101630252Y-97949500D01*
X101571769Y-97961132D01*
X101505448Y-98005448D01*
X101461132Y-98071769D01*
X101449500Y-98130251D01*
X101449500Y-99700500D01*
X101429538Y-99775000D01*
X101375000Y-99829538D01*
X101300500Y-99849500D01*
X100299500Y-99849500D01*
X100225000Y-99829538D01*
X100170462Y-99775000D01*
X100150500Y-99700500D01*
X100150500Y-92512498D01*
X100799500Y-92512498D01*
X100799500Y-92521539D01*
X100799500Y-92645047D01*
X100829181Y-92908486D01*
X100888098Y-93166616D01*
X100888171Y-93166936D01*
X100937627Y-93308273D01*
X100975727Y-93417157D01*
X100975730Y-93417166D01*
X101080255Y-93634213D01*
X101090751Y-93656008D01*
X101231794Y-93880475D01*
X101397082Y-94087739D01*
X101442022Y-94132679D01*
X102053457Y-94744113D01*
X102053460Y-94744115D01*
X102168180Y-94820769D01*
X102168184Y-94820771D01*
X102168188Y-94820774D01*
X102168189Y-94820774D01*
X102168192Y-94820776D01*
X102219181Y-94841896D01*
X102295671Y-94873580D01*
X102431006Y-94900499D01*
X102568994Y-94900499D01*
X102704328Y-94873580D01*
X102831811Y-94820774D01*
X102831813Y-94820772D01*
X102831816Y-94820771D01*
X102855132Y-94805191D01*
X102946543Y-94744113D01*
X103044113Y-94646543D01*
X103120774Y-94531811D01*
X103173580Y-94404328D01*
X103200499Y-94268994D01*
X103200499Y-94131006D01*
X103173580Y-93995671D01*
X103135830Y-93904535D01*
X103120776Y-93868192D01*
X103120769Y-93868180D01*
X103044115Y-93753460D01*
X103044113Y-93753457D01*
X102485599Y-93194942D01*
X102477658Y-93186351D01*
X102393839Y-93088212D01*
X102391316Y-93085257D01*
X102377577Y-93066347D01*
X102311180Y-92957997D01*
X102300565Y-92937165D01*
X102251936Y-92819765D01*
X102246903Y-92801966D01*
X102244711Y-92797527D01*
X102215048Y-92673968D01*
X102211390Y-92650876D01*
X102201745Y-92528322D01*
X102201745Y-92528321D01*
X102201484Y-92525000D01*
X102895068Y-92525000D01*
X102895202Y-92526194D01*
X102895202Y-92526198D01*
X102912741Y-92681858D01*
X102912741Y-92681860D01*
X102912742Y-92681862D01*
X102916139Y-92691569D01*
X102924500Y-92740779D01*
X102924500Y-92827764D01*
X102927274Y-92857344D01*
X102927274Y-92857346D01*
X102927275Y-92857349D01*
X102945169Y-92908486D01*
X102970884Y-92981977D01*
X103049287Y-93088209D01*
X103049290Y-93088212D01*
X103155523Y-93166615D01*
X103155524Y-93166615D01*
X103155525Y-93166616D01*
X103156440Y-93166936D01*
X103205846Y-93184224D01*
X103269573Y-93227672D01*
X103280523Y-93242082D01*
X103313472Y-93291393D01*
X103323218Y-93308273D01*
X103392567Y-93448899D01*
X103400026Y-93466906D01*
X103450428Y-93615387D01*
X103455472Y-93634213D01*
X103486061Y-93787996D01*
X103488605Y-93807318D01*
X103499181Y-93968660D01*
X103499500Y-93978406D01*
X103499500Y-95968997D01*
X103526419Y-96104327D01*
X103526420Y-96104329D01*
X103579220Y-96231802D01*
X103579223Y-96231808D01*
X103579225Y-96231811D01*
X103655886Y-96346543D01*
X103765957Y-96456614D01*
X103880689Y-96533275D01*
X103880693Y-96533276D01*
X103880697Y-96533279D01*
X103982675Y-96575519D01*
X104008172Y-96586080D01*
X104143506Y-96613000D01*
X104143510Y-96613000D01*
X104281494Y-96613000D01*
X104416829Y-96586080D01*
X104544312Y-96533275D01*
X104659043Y-96456614D01*
X104756614Y-96359043D01*
X104833275Y-96244312D01*
X104886080Y-96116829D01*
X104913000Y-95981494D01*
X104913000Y-95843506D01*
X104903363Y-95795057D01*
X104900500Y-95765989D01*
X104900500Y-93838482D01*
X104900500Y-93838477D01*
X104874025Y-93569675D01*
X104821331Y-93304763D01*
X104742924Y-93046292D01*
X104639561Y-92796750D01*
X104512235Y-92558541D01*
X104362178Y-92333963D01*
X104362178Y-92333962D01*
X104305061Y-92264365D01*
X104276409Y-92201129D01*
X104274661Y-92201512D01*
X104272726Y-92192658D01*
X104272725Y-92192655D01*
X104272725Y-92192651D01*
X104229116Y-92068025D01*
X104229115Y-92068022D01*
X104150712Y-91961790D01*
X104150709Y-91961787D01*
X104044477Y-91883384D01*
X103984299Y-91862327D01*
X103919849Y-91839775D01*
X103919846Y-91839774D01*
X103919844Y-91839774D01*
X103890264Y-91837000D01*
X103890256Y-91837000D01*
X103758644Y-91837000D01*
X103741961Y-91836063D01*
X103600001Y-91820068D01*
X103599999Y-91820068D01*
X103458039Y-91836063D01*
X103441356Y-91837000D01*
X103309735Y-91837000D01*
X103280155Y-91839774D01*
X103280152Y-91839774D01*
X103280151Y-91839775D01*
X103245787Y-91851799D01*
X103155522Y-91883384D01*
X103049290Y-91961787D01*
X103049287Y-91961790D01*
X102970884Y-92068022D01*
X102927274Y-92192655D01*
X102924500Y-92222235D01*
X102924500Y-92309219D01*
X102922155Y-92323017D01*
X102923022Y-92330152D01*
X102920967Y-92344630D01*
X102912742Y-92368138D01*
X102895068Y-92525000D01*
X102201484Y-92525000D01*
X102200959Y-92518333D01*
X102200500Y-92506644D01*
X102200500Y-92433577D01*
X102200500Y-92433575D01*
X102179235Y-92340410D01*
X102175500Y-92307255D01*
X102175500Y-92209752D01*
X102175499Y-92209735D01*
X102173898Y-92192658D01*
X102172725Y-92180151D01*
X102129116Y-92055525D01*
X102129115Y-92055522D01*
X102050712Y-91949290D01*
X102050709Y-91949287D01*
X101944477Y-91870884D01*
X101884299Y-91849827D01*
X101819849Y-91827275D01*
X101819846Y-91827274D01*
X101819844Y-91827274D01*
X101790264Y-91824500D01*
X101790256Y-91824500D01*
X101650478Y-91824500D01*
X101617322Y-91820764D01*
X101578930Y-91812001D01*
X101578926Y-91812000D01*
X101421071Y-91812000D01*
X101382676Y-91820764D01*
X101349521Y-91824500D01*
X101209735Y-91824500D01*
X101180155Y-91827274D01*
X101180152Y-91827274D01*
X101180151Y-91827275D01*
X101155037Y-91836063D01*
X101055522Y-91870884D01*
X100949290Y-91949287D01*
X100949287Y-91949290D01*
X100870884Y-92055522D01*
X100827274Y-92180155D01*
X100824500Y-92209735D01*
X100824500Y-92307255D01*
X100822885Y-92321584D01*
X100823407Y-92325271D01*
X100822476Y-92332906D01*
X100799501Y-92433571D01*
X100799500Y-92512498D01*
X100150500Y-92512498D01*
X100150500Y-89299500D01*
X100170462Y-89225000D01*
X100225000Y-89170462D01*
X100299500Y-89150500D01*
X114700500Y-89150500D01*
X114775000Y-89170462D01*
G37*
%TD.AperFunction*%
%TA.AperFunction,Conductor*%
G36*
X112147642Y-97820462D02*
G01*
X112202180Y-97875000D01*
X112222142Y-97949500D01*
X112202180Y-98024000D01*
X112155922Y-98073389D01*
X111990345Y-98184022D01*
X111844022Y-98330345D01*
X111729057Y-98502403D01*
X111649869Y-98693582D01*
X111609500Y-98896534D01*
X111609500Y-99103465D01*
X111649869Y-99306417D01*
X111729057Y-99497595D01*
X111729058Y-99497597D01*
X111729059Y-99497598D01*
X111809322Y-99617721D01*
X111834114Y-99690755D01*
X111819067Y-99766401D01*
X111768213Y-99824389D01*
X111695178Y-99849181D01*
X111685433Y-99849500D01*
X111094567Y-99849500D01*
X111020067Y-99829538D01*
X110965529Y-99775000D01*
X110945567Y-99700500D01*
X110965529Y-99626000D01*
X110970669Y-99617733D01*
X111050941Y-99497598D01*
X111130130Y-99306420D01*
X111170500Y-99103465D01*
X111170500Y-98896535D01*
X111130130Y-98693580D01*
X111083742Y-98581591D01*
X111050942Y-98502403D01*
X110935977Y-98330345D01*
X110860491Y-98254859D01*
X110821927Y-98188064D01*
X110821927Y-98110936D01*
X110860491Y-98044141D01*
X110927286Y-98005577D01*
X110965850Y-98000500D01*
X111065892Y-98000500D01*
X111193186Y-97966392D01*
X111307314Y-97900500D01*
X111363674Y-97844140D01*
X111430469Y-97805577D01*
X111469032Y-97800500D01*
X112073142Y-97800500D01*
X112147642Y-97820462D01*
G37*
%TD.AperFunction*%
%TD*%
M02*
