%TF.GenerationSoftware,KiCad,Pcbnew,10.0.5*%
%TF.CreationDate,2026-09-04T12:20:32+10:00*%
%TF.ProjectId,OM345A,4f4d3334-3541-42e6-9b69-6361645f7063,rev?*%
%TF.SameCoordinates,Original*%
%TF.FileFunction,Plated,1,2,PTH,Drill*%
%TF.FilePolarity,Positive*%
%FSLAX46Y46*%
G04 Gerber Fmt 4.6, Leading zero omitted, Abs format (unit mm)*
G04 Created by KiCad (PCBNEW 10.0.5) date 2026-09-04 12:20:32*
%MOMM*%
%LPD*%
G01*
G04 APERTURE LIST*
%TA.AperFunction,ViaDrill*%
%ADD10C,0.300000*%
%TD*%
%TA.AperFunction,ViaDrill*%
%ADD11C,0.500000*%
%TD*%
%TA.AperFunction,ComponentDrill*%
%ADD12C,1.000000*%
%TD*%
G04 APERTURE END LIST*
D10*
X100450000Y-89500000D03*
X100450000Y-91700000D03*
X100450000Y-92800000D03*
X100450000Y-93900000D03*
X100450000Y-95100000D03*
X100450000Y-96300000D03*
X101100000Y-98200000D03*
X101100000Y-99400000D03*
X102000000Y-97649998D03*
X102200000Y-91500000D03*
X102309799Y-96707295D03*
X102800000Y-89500000D03*
X103200000Y-94920000D03*
X103500000Y-91500000D03*
X104350410Y-96902945D03*
X104522943Y-91990466D03*
X105500000Y-89500000D03*
X105500000Y-90350000D03*
X105500000Y-91200000D03*
X105500000Y-94800000D03*
X105500000Y-96000000D03*
X105500000Y-97150000D03*
X106500000Y-97150000D03*
X107500000Y-89500000D03*
X107500000Y-90350000D03*
X107500000Y-91200000D03*
X107500000Y-94800000D03*
X107500000Y-96000000D03*
X107500000Y-97150000D03*
X108700000Y-89500000D03*
X108800000Y-94000000D03*
X109000000Y-97150000D03*
X109800000Y-89500000D03*
X109850000Y-91800000D03*
X110000000Y-94700000D03*
X110700000Y-92700000D03*
X111000000Y-97500000D03*
X111400000Y-95000000D03*
X111600000Y-96800000D03*
X111600000Y-98100000D03*
X111700000Y-93000000D03*
X112100000Y-89500000D03*
X113000000Y-93000000D03*
X113400000Y-94800000D03*
X113700000Y-98100000D03*
X114000000Y-97000000D03*
X114500000Y-89500000D03*
X114500000Y-99500000D03*
D11*
X102500000Y-94200000D03*
X104200000Y-95900000D03*
D12*
%TO.C,J1*%
X102500000Y-99000000D03*
X105040000Y-99000000D03*
X107580000Y-99000000D03*
X110120000Y-99000000D03*
X112660000Y-99000000D03*
M02*
