%TF.GenerationSoftware,KiCad,Pcbnew,10.0.5*%
%TF.CreationDate,2026-09-04T12:19:43+10:00*%
%TF.ProjectId,OM345A,4f4d3334-3541-42e6-9b69-6361645f7063,rev?*%
%TF.SameCoordinates,Original*%
%TF.FileFunction,Legend,Bot*%
%TF.FilePolarity,Positive*%
%FSLAX46Y46*%
G04 Gerber Fmt 4.6, Leading zero omitted, Abs format (unit mm)*
G04 Created by KiCad (PCBNEW 10.0.5) date 2026-09-04 12:19:43*
%MOMM*%
%LPD*%
G01*
G04 APERTURE LIST*
%ADD10C,0.300000*%
%ADD11C,0.120000*%
G04 APERTURE END LIST*
D10*
X114359774Y-91019750D02*
X113859774Y-93019750D01*
X113859774Y-93019750D02*
X113359774Y-91019750D01*
X112859775Y-93019750D02*
X112859775Y-91019750D01*
X112002632Y-93019750D02*
X112645489Y-91876892D01*
X112002632Y-91019750D02*
X112859775Y-92162607D01*
X111502632Y-91019750D02*
X110574060Y-91019750D01*
X110574060Y-91019750D02*
X111074060Y-91781654D01*
X111074060Y-91781654D02*
X110859775Y-91781654D01*
X110859775Y-91781654D02*
X110716918Y-91876892D01*
X110716918Y-91876892D02*
X110645489Y-91972131D01*
X110645489Y-91972131D02*
X110574060Y-92162607D01*
X110574060Y-92162607D02*
X110574060Y-92638797D01*
X110574060Y-92638797D02*
X110645489Y-92829273D01*
X110645489Y-92829273D02*
X110716918Y-92924512D01*
X110716918Y-92924512D02*
X110859775Y-93019750D01*
X110859775Y-93019750D02*
X111288346Y-93019750D01*
X111288346Y-93019750D02*
X111431203Y-92924512D01*
X111431203Y-92924512D02*
X111502632Y-92829273D01*
X109931204Y-91972131D02*
X109431204Y-91972131D01*
X109216918Y-93019750D02*
X109931204Y-93019750D01*
X109931204Y-93019750D02*
X109931204Y-91019750D01*
X109931204Y-91019750D02*
X109216918Y-91019750D01*
X107716918Y-93019750D02*
X108216918Y-92067369D01*
X108574061Y-93019750D02*
X108574061Y-91019750D01*
X108574061Y-91019750D02*
X108002632Y-91019750D01*
X108002632Y-91019750D02*
X107859775Y-91114988D01*
X107859775Y-91114988D02*
X107788346Y-91210226D01*
X107788346Y-91210226D02*
X107716918Y-91400702D01*
X107716918Y-91400702D02*
X107716918Y-91686416D01*
X107716918Y-91686416D02*
X107788346Y-91876892D01*
X107788346Y-91876892D02*
X107859775Y-91972131D01*
X107859775Y-91972131D02*
X108002632Y-92067369D01*
X108002632Y-92067369D02*
X108574061Y-92067369D01*
X107216918Y-91019750D02*
X106859775Y-93019750D01*
X106859775Y-93019750D02*
X106574061Y-91591178D01*
X106574061Y-91591178D02*
X106288346Y-93019750D01*
X106288346Y-93019750D02*
X105931204Y-91019750D01*
X113859774Y-94239638D02*
X113574060Y-94239638D01*
X113574060Y-94239638D02*
X113431203Y-94334876D01*
X113431203Y-94334876D02*
X113288346Y-94525352D01*
X113288346Y-94525352D02*
X113216917Y-94906304D01*
X113216917Y-94906304D02*
X113216917Y-95572971D01*
X113216917Y-95572971D02*
X113288346Y-95953923D01*
X113288346Y-95953923D02*
X113431203Y-96144400D01*
X113431203Y-96144400D02*
X113574060Y-96239638D01*
X113574060Y-96239638D02*
X113859774Y-96239638D01*
X113859774Y-96239638D02*
X114002632Y-96144400D01*
X114002632Y-96144400D02*
X114145489Y-95953923D01*
X114145489Y-95953923D02*
X114216917Y-95572971D01*
X114216917Y-95572971D02*
X114216917Y-94906304D01*
X114216917Y-94906304D02*
X114145489Y-94525352D01*
X114145489Y-94525352D02*
X114002632Y-94334876D01*
X114002632Y-94334876D02*
X113859774Y-94239638D01*
X112574060Y-96239638D02*
X112574060Y-94239638D01*
X112574060Y-94239638D02*
X112074060Y-95668209D01*
X112074060Y-95668209D02*
X111574060Y-94239638D01*
X111574060Y-94239638D02*
X111574060Y-96239638D01*
X111002631Y-94239638D02*
X110074059Y-94239638D01*
X110074059Y-94239638D02*
X110574059Y-95001542D01*
X110574059Y-95001542D02*
X110359774Y-95001542D01*
X110359774Y-95001542D02*
X110216917Y-95096780D01*
X110216917Y-95096780D02*
X110145488Y-95192019D01*
X110145488Y-95192019D02*
X110074059Y-95382495D01*
X110074059Y-95382495D02*
X110074059Y-95858685D01*
X110074059Y-95858685D02*
X110145488Y-96049161D01*
X110145488Y-96049161D02*
X110216917Y-96144400D01*
X110216917Y-96144400D02*
X110359774Y-96239638D01*
X110359774Y-96239638D02*
X110788345Y-96239638D01*
X110788345Y-96239638D02*
X110931202Y-96144400D01*
X110931202Y-96144400D02*
X111002631Y-96049161D01*
X108788346Y-94906304D02*
X108788346Y-96239638D01*
X109145488Y-94144400D02*
X109502631Y-95572971D01*
X109502631Y-95572971D02*
X108574060Y-95572971D01*
X107288346Y-94239638D02*
X108002632Y-94239638D01*
X108002632Y-94239638D02*
X108074060Y-95192019D01*
X108074060Y-95192019D02*
X108002632Y-95096780D01*
X108002632Y-95096780D02*
X107859775Y-95001542D01*
X107859775Y-95001542D02*
X107502632Y-95001542D01*
X107502632Y-95001542D02*
X107359775Y-95096780D01*
X107359775Y-95096780D02*
X107288346Y-95192019D01*
X107288346Y-95192019D02*
X107216917Y-95382495D01*
X107216917Y-95382495D02*
X107216917Y-95858685D01*
X107216917Y-95858685D02*
X107288346Y-96049161D01*
X107288346Y-96049161D02*
X107359775Y-96144400D01*
X107359775Y-96144400D02*
X107502632Y-96239638D01*
X107502632Y-96239638D02*
X107859775Y-96239638D01*
X107859775Y-96239638D02*
X108002632Y-96144400D01*
X108002632Y-96144400D02*
X108074060Y-96049161D01*
X105502632Y-95668209D02*
X104788347Y-95668209D01*
X105645489Y-96239638D02*
X105145489Y-94239638D01*
X105145489Y-94239638D02*
X104645489Y-96239638D01*
X103359775Y-96239638D02*
X104216918Y-96239638D01*
X103788347Y-96239638D02*
X103788347Y-94239638D01*
X103788347Y-94239638D02*
X103931204Y-94525352D01*
X103931204Y-94525352D02*
X104074061Y-94715828D01*
X104074061Y-94715828D02*
X104216918Y-94811066D01*
%TO.C,R5*%
D11*
X103077500Y-91357776D02*
X103077500Y-91867224D01*
X104122500Y-91357776D02*
X104122500Y-91867224D01*
%TO.C,R4*%
X100977500Y-91345276D02*
X100977500Y-91854724D01*
X102022500Y-91345276D02*
X102022500Y-91854724D01*
%TD*%
M02*
